<svg xmlns="http://www.w3.org/2000/svg" xmlns:xlink="http://www.w3.org/1999/xlink" width="25" height="25" viewBox="0 0 25 25">
  <defs>
    <clipPath id="clip-path">
      <path id="Path_135" data-name="Path 135" d="M307.3,518.618V524.7a.7.7,0,0,1-1.005.621l-3.162-2.276v-2.777L306.293,518A.694.694,0,0,1,307.3,518.618Z" transform="translate(-303.131 -517.922)" fill="none"/>
    </clipPath>
    <clipPath id="clip-path-2">
      <path id="Path_168" data-name="Path 168" d="M169.8,504.838H155.909a2.778,2.778,0,0,0-2.778,2.778v6.944a2.778,2.778,0,0,0,2.778,2.778H169.8a2.778,2.778,0,0,0,2.778-2.778v-6.944A2.778,2.778,0,0,0,169.8,504.838Zm-11.111,3.611a.556.556,0,0,1-.556.556h-1.667a.556.556,0,0,1-.556-.556v-.278a.556.556,0,0,1,.556-.556h1.667a.556.556,0,0,1,.556.556Z" transform="translate(-153.131 -504.838)" fill="none"/>
    </clipPath>
    <clipPath id="clip-path-3">
      <path id="Path_201" data-name="Path 201" d="M167.555,414.838a5.546,5.546,0,0,0-4.435,2.21,5.555,5.555,0,1,0-4.435,8.9h8.87a5.556,5.556,0,0,0,0-11.111Zm-8.872,8.333a2.778,2.778,0,1,1,2.778-2.778A2.778,2.778,0,0,1,158.684,423.171Zm8.87,0a2.778,2.778,0,1,1,2.778-2.778A2.778,2.778,0,0,1,167.554,423.171Z" transform="translate(-153.13 -414.838)" fill="none"/>
    </clipPath>
  </defs>
  <g id="Group_107" data-name="Group 107" transform="translate(-153.13 -414.838)">
    <g id="Group_39" data-name="Group 39" transform="translate(153.13 414.838)">
      <g id="Group_31" data-name="Group 31" transform="translate(20.833 14.317)">
        <g id="Group_30" data-name="Group 30" clip-path="url(#clip-path)">
          <g id="Group_29" data-name="Group 29" transform="translate(-30.021 -18.412)">
            <path id="Path_103" data-name="Path 103" d="M101.3,405.39l7.293-.248,1.492-8.092Z" transform="translate(-99.307 -395.426)" fill="#00b287"/>
            <path id="Path_104" data-name="Path 104" d="M101.3,405.39l4.144-5.119,4.641-3.22Z" transform="translate(-99.307 -395.426)" fill="#078b77"/>
            <path id="Path_105" data-name="Path 105" d="M173.22,388.688l3.591-3.33-12.265,1.624Z" transform="translate(-153.772 -385.358)" fill="#6cc9ca"/>
            <path id="Path_106" data-name="Path 106" d="M227,388.688l11.05,3.083-7.459-6.413Z" transform="translate(-207.553 -385.358)" fill="#00bac9"/>
            <path id="Path_107" data-name="Path 107" d="M260.316,391.771l1.989-1.073-9.448-5.34Z" transform="translate(-229.818 -385.358)" fill="#96d4cc"/>
            <path id="Path_108" data-name="Path 108" d="M306.56,431.533l3.646,12.771,3.149-6Z" transform="translate(-276.063 -425.12)" fill="#18b79b"/>
            <path id="Path_109" data-name="Path 109" d="M306.56,424.877l1.989-1.073,4.807,7.844Z" transform="translate(-276.063 -418.464)" fill="#57c4ca"/>
            <path id="Path_110" data-name="Path 110" d="M332.821,486.274l3.654,4.976-.515-10.981Z" transform="translate(-298.676 -467.087)" fill="#00a9ac"/>
            <path id="Path_111" data-name="Path 111" d="M309.743,536.147l3.2-12.661,3.646,4.982Z" transform="translate(-278.803 -504.302)" fill="#00b087"/>
            <path id="Path_112" data-name="Path 112" d="M309.743,567.035l1.381.991,5.47-8.67Z" transform="translate(-278.803 -535.19)" fill="#078b77"/>
            <path id="Path_113" data-name="Path 113" d="M259.217,614.647l-8.149,5.945,9.531-4.954Z" transform="translate(-228.277 -582.801)" fill="#006e50"/>
            <path id="Path_114" data-name="Path 114" d="M227.873,614.647l-13.2,2.752,5.055,3.193Z" transform="translate(-196.934 -582.801)" fill="#009a90"/>
            <path id="Path_115" data-name="Path 115" d="M181.784,634.464l-5.3,2.367,10.359.826Z" transform="translate(-164.049 -599.866)" fill="#18b79b"/>
            <path id="Path_116" data-name="Path 116" d="M137.253,606.819l-12.486-4.459,7.182,6.826Z" transform="translate(-119.517 -572.221)" fill="#00bac9"/>
            <path id="Path_117" data-name="Path 117" d="M124.766,559.356l6.906-6.936,5.58,11.4Z" transform="translate(-119.517 -529.217)" fill="#00a9ac"/>
            <path id="Path_118" data-name="Path 118" d="M102.125,464.493l-.829-8.932,7.293-.248Z" transform="translate(-99.307 -445.598)" fill="#18b79b"/>
            <path id="Path_119" data-name="Path 119" d="M107.263,464.493,116.6,468.8l-2.873-13.487Z" transform="translate(-104.445 -445.598)" fill="#00ad9c"/>
            <path id="Path_120" data-name="Path 120" d="M153.806,455.314,167.314,459l-10.635,9.8Z" transform="translate(-144.524 -445.598)" fill="#00b287"/>
            <path id="Path_121" data-name="Path 121" d="M174.491,552.42l12.542,2.986-6.961,8.409Z" transform="translate(-162.336 -529.217)" fill="#00b38c"/>
            <path id="Path_122" data-name="Path 122" d="M221.63,573.921l6.243,5.656-13.2,2.752Z" transform="translate(-196.934 -547.732)" fill="#00ad9c"/>
            <path id="Path_123" data-name="Path 123" d="M264.792,530.491l9.448-7-3.2,12.661Z" transform="translate(-240.095 -504.302)" fill="#00b287"/>
            <path id="Path_124" data-name="Path 124" d="M187.033,494.654l-1.906-12.785-10.636,9.8Z" transform="translate(-162.336 -468.465)" fill="#27b687"/>
            <path id="Path_125" data-name="Path 125" d="M251.067,481.869l11.354,5.78-9.448,7Z" transform="translate(-228.277 -468.465)" fill="#01b8ab"/>
            <path id="Path_126" data-name="Path 126" d="M251.067,438.524l7.707-6.991,3.646,12.771Z" transform="translate(-228.277 -425.12)" fill="#00b287"/>
            <path id="Path_127" data-name="Path 127" d="M230.343,419.411,227,409.337l11.05,3.083Z" transform="translate(-207.553 -406.007)" fill="#18b79b"/>
            <path id="Path_128" data-name="Path 128" d="M167.314,419.411l-3.343-10.074-10.166,6.386Z" transform="translate(-144.524 -406.007)" fill="#00a788"/>
            <path id="Path_129" data-name="Path 129" d="M107.263,521.405l9.337,4.308-6.906,6.936Z" transform="translate(-104.445 -502.51)" fill="#01b8ab"/>
            <path id="Path_130" data-name="Path 130" d="M153.806,405.142l1.492-8.092,8.674,1.706Z" transform="translate(-144.524 -395.426)" fill="#18b79b"/>
            <path id="Path_131" data-name="Path 131" d="M120.987,602.91l.525-.551,7.182,6.826Z" transform="translate(-116.263 -572.221)" fill="#96d4cc"/>
            <path id="Path_132" data-name="Path 132" d="M92.224,532.649l-2.431-11.244L86.975,524.2Z" transform="translate(-86.975 -502.51)" fill="#00bac9"/>
            <path id="Path_133" data-name="Path 133" d="M92.224,549.97l-5.249-8.45,4.724,9Z" transform="translate(-86.975 -519.831)" fill="#6cc9ca"/>
            <path id="Path_134" data-name="Path 134" d="M88.964,457.1l.829,8.932-2.818,2.794Z" transform="translate(-86.975 -447.134)" fill="#57c4ca"/>
          </g>
        </g>
      </g>
      <g id="Group_34" data-name="Group 34" transform="translate(0 12.5)">
        <g id="Group_33" data-name="Group 33" clip-path="url(#clip-path-2)">
          <g id="Group_32" data-name="Group 32" transform="translate(-9.188 -16.594)">
            <path id="Path_136" data-name="Path 136" d="M101.3,405.39l7.293-.248,1.492-8.092Z" transform="translate(-99.307 -395.426)" fill="#00b287"/>
            <path id="Path_137" data-name="Path 137" d="M101.3,405.39l4.144-5.119,4.641-3.22Z" transform="translate(-99.307 -395.426)" fill="#078b77"/>
            <path id="Path_138" data-name="Path 138" d="M173.22,388.688l3.591-3.33-12.265,1.624Z" transform="translate(-153.772 -385.358)" fill="#6cc9ca"/>
            <path id="Path_139" data-name="Path 139" d="M227,388.688l11.05,3.083-7.459-6.413Z" transform="translate(-207.553 -385.358)" fill="#00bac9"/>
            <path id="Path_140" data-name="Path 140" d="M260.316,391.771l1.989-1.073-9.448-5.34Z" transform="translate(-229.818 -385.358)" fill="#96d4cc"/>
            <path id="Path_141" data-name="Path 141" d="M306.56,431.533l3.646,12.771,3.149-6Z" transform="translate(-276.063 -425.12)" fill="#18b79b"/>
            <path id="Path_142" data-name="Path 142" d="M306.56,424.877l1.989-1.073,4.807,7.844Z" transform="translate(-276.063 -418.464)" fill="#57c4ca"/>
            <path id="Path_143" data-name="Path 143" d="M332.821,486.274l3.654,4.976-.515-10.981Z" transform="translate(-298.676 -467.087)" fill="#00a9ac"/>
            <path id="Path_144" data-name="Path 144" d="M309.743,536.147l3.2-12.661,3.646,4.982Z" transform="translate(-278.803 -504.302)" fill="#00b087"/>
            <path id="Path_145" data-name="Path 145" d="M309.743,567.035l1.381.991,5.47-8.67Z" transform="translate(-278.803 -535.19)" fill="#078b77"/>
            <path id="Path_146" data-name="Path 146" d="M259.217,614.647l-8.149,5.945,9.531-4.954Z" transform="translate(-228.277 -582.801)" fill="#006e50"/>
            <path id="Path_147" data-name="Path 147" d="M227.873,614.647l-13.2,2.752,5.055,3.193Z" transform="translate(-196.934 -582.801)" fill="#009a90"/>
            <path id="Path_148" data-name="Path 148" d="M181.784,634.464l-5.3,2.367,10.359.826Z" transform="translate(-164.049 -599.866)" fill="#18b79b"/>
            <path id="Path_149" data-name="Path 149" d="M137.253,606.819l-12.486-4.459,7.182,6.826Z" transform="translate(-119.517 -572.221)" fill="#00bac9"/>
            <path id="Path_150" data-name="Path 150" d="M124.766,559.356l6.906-6.936,5.58,11.4Z" transform="translate(-119.517 -529.217)" fill="#00a9ac"/>
            <path id="Path_151" data-name="Path 151" d="M102.125,464.493l-.829-8.932,7.293-.248Z" transform="translate(-99.307 -445.598)" fill="#18b79b"/>
            <path id="Path_152" data-name="Path 152" d="M107.263,464.493,116.6,468.8l-2.873-13.487Z" transform="translate(-104.445 -445.598)" fill="#00ad9c"/>
            <path id="Path_153" data-name="Path 153" d="M153.806,455.314,167.314,459l-10.635,9.8Z" transform="translate(-144.524 -445.598)" fill="#00b287"/>
            <path id="Path_154" data-name="Path 154" d="M174.491,552.42l12.542,2.986-6.961,8.409Z" transform="translate(-162.336 -529.217)" fill="#00b38c"/>
            <path id="Path_155" data-name="Path 155" d="M221.63,573.921l6.243,5.656-13.2,2.752Z" transform="translate(-196.934 -547.732)" fill="#00ad9c"/>
            <path id="Path_156" data-name="Path 156" d="M264.792,530.491l9.448-7-3.2,12.661Z" transform="translate(-240.095 -504.302)" fill="#00b287"/>
            <path id="Path_157" data-name="Path 157" d="M187.033,494.654l-1.906-12.785-10.636,9.8Z" transform="translate(-162.336 -468.465)" fill="#27b687"/>
            <path id="Path_158" data-name="Path 158" d="M251.067,481.869l11.354,5.78-9.448,7Z" transform="translate(-228.277 -468.465)" fill="#01b8ab"/>
            <path id="Path_159" data-name="Path 159" d="M251.067,438.524l7.707-6.991,3.646,12.771Z" transform="translate(-228.277 -425.12)" fill="#00b287"/>
            <path id="Path_160" data-name="Path 160" d="M230.343,419.411,227,409.337l11.05,3.083Z" transform="translate(-207.553 -406.007)" fill="#18b79b"/>
            <path id="Path_161" data-name="Path 161" d="M167.314,419.411l-3.343-10.074-10.166,6.386Z" transform="translate(-144.524 -406.007)" fill="#00a788"/>
            <path id="Path_162" data-name="Path 162" d="M107.263,521.405l9.337,4.308-6.906,6.936Z" transform="translate(-104.445 -502.51)" fill="#01b8ab"/>
            <path id="Path_163" data-name="Path 163" d="M153.806,405.142l1.492-8.092,8.674,1.706Z" transform="translate(-144.524 -395.426)" fill="#18b79b"/>
            <path id="Path_164" data-name="Path 164" d="M120.987,602.91l.525-.551,7.182,6.826Z" transform="translate(-116.263 -572.221)" fill="#96d4cc"/>
            <path id="Path_165" data-name="Path 165" d="M92.224,532.649l-2.431-11.244L86.975,524.2Z" transform="translate(-86.975 -502.51)" fill="#00bac9"/>
            <path id="Path_166" data-name="Path 166" d="M92.224,549.97l-5.249-8.45,4.724,9Z" transform="translate(-86.975 -519.831)" fill="#6cc9ca"/>
            <path id="Path_167" data-name="Path 167" d="M88.964,457.1l.829,8.932-2.818,2.794Z" transform="translate(-86.975 -447.134)" fill="#57c4ca"/>
          </g>
        </g>
      </g>
      <g id="Group_37" data-name="Group 37" transform="translate(0 0)">
        <g id="Group_36" data-name="Group 36" clip-path="url(#clip-path-3)">
          <g id="Group_35" data-name="Group 35" transform="translate(-10.577 -5.483)">
            <path id="Path_169" data-name="Path 169" d="M91.3,395.389l7.293-.248,1.492-8.092Z" transform="translate(-89.306 -385.426)" fill="#00b287"/>
            <path id="Path_170" data-name="Path 170" d="M91.3,395.389l4.144-5.119,4.641-3.22Z" transform="translate(-89.306 -385.426)" fill="#078b77"/>
            <path id="Path_171" data-name="Path 171" d="M163.22,378.688l3.591-3.33-12.265,1.624Z" transform="translate(-143.772 -375.357)" fill="#6cc9ca"/>
            <path id="Path_172" data-name="Path 172" d="M217,378.688l11.05,3.083-7.459-6.413Z" transform="translate(-197.552 -375.357)" fill="#00bac9"/>
            <path id="Path_173" data-name="Path 173" d="M250.316,381.77,252.3,380.7l-9.448-5.34Z" transform="translate(-219.818 -375.357)" fill="#96d4cc"/>
            <path id="Path_174" data-name="Path 174" d="M296.56,421.532l3.646,12.771,3.149-6Z" transform="translate(-266.062 -415.119)" fill="#18b79b"/>
            <path id="Path_175" data-name="Path 175" d="M296.56,414.877l1.989-1.073,4.807,7.844Z" transform="translate(-266.062 -408.464)" fill="#57c4ca"/>
            <path id="Path_176" data-name="Path 176" d="M322.82,476.273l3.654,4.976-.514-10.981Z" transform="translate(-288.675 -457.086)" fill="#00a9ac"/>
            <path id="Path_177" data-name="Path 177" d="M299.742,526.146l3.2-12.661,3.646,4.982Z" transform="translate(-268.802 -494.301)" fill="#00b087"/>
            <path id="Path_178" data-name="Path 178" d="M299.742,557.034l1.381.991,5.47-8.67Z" transform="translate(-268.802 -525.189)" fill="#078b77"/>
            <path id="Path_179" data-name="Path 179" d="M249.216,604.646l-8.149,5.945,9.531-4.954Z" transform="translate(-218.276 -572.801)" fill="#006e50"/>
            <path id="Path_180" data-name="Path 180" d="M217.873,604.646l-13.2,2.752,5.055,3.193Z" transform="translate(-186.933 -572.801)" fill="#009a90"/>
            <path id="Path_181" data-name="Path 181" d="M171.783,624.464l-5.3,2.367,10.359.826Z" transform="translate(-154.048 -589.866)" fill="#18b79b"/>
            <path id="Path_182" data-name="Path 182" d="M127.252,596.818l-12.486-4.459,7.182,6.826Z" transform="translate(-109.517 -562.22)" fill="#00bac9"/>
            <path id="Path_183" data-name="Path 183" d="M114.766,549.355l6.906-6.936,5.58,11.4Z" transform="translate(-109.517 -519.216)" fill="#00a9ac"/>
            <path id="Path_184" data-name="Path 184" d="M92.124,454.492l-.829-8.932,7.293-.248Z" transform="translate(-89.306 -435.597)" fill="#18b79b"/>
            <path id="Path_185" data-name="Path 185" d="M97.262,454.492,106.6,458.8l-2.873-13.487Z" transform="translate(-94.445 -435.597)" fill="#00ad9c"/>
            <path id="Path_186" data-name="Path 186" d="M143.8,445.313,157.313,449l-10.636,9.8Z" transform="translate(-134.523 -435.597)" fill="#00b287"/>
            <path id="Path_187" data-name="Path 187" d="M164.49,542.419l12.542,2.986-6.961,8.409Z" transform="translate(-152.336 -519.216)" fill="#00b38c"/>
            <path id="Path_188" data-name="Path 188" d="M211.63,563.921l6.243,5.656-13.2,2.752Z" transform="translate(-186.933 -537.732)" fill="#00ad9c"/>
            <path id="Path_189" data-name="Path 189" d="M254.791,520.49l9.448-7-3.2,12.661Z" transform="translate(-230.094 -494.301)" fill="#00b287"/>
            <path id="Path_190" data-name="Path 190" d="M177.032,484.654l-1.906-12.785-10.636,9.8Z" transform="translate(-152.336 -458.464)" fill="#27b687"/>
            <path id="Path_191" data-name="Path 191" d="M241.067,471.869l11.354,5.78-9.448,7Z" transform="translate(-218.276 -458.464)" fill="#01b8ab"/>
            <path id="Path_192" data-name="Path 192" d="M241.067,428.523l7.707-6.991,3.646,12.771Z" transform="translate(-218.276 -415.119)" fill="#00b287"/>
            <path id="Path_193" data-name="Path 193" d="M220.342,409.41,217,399.336l11.05,3.083Z" transform="translate(-197.552 -396.006)" fill="#18b79b"/>
            <path id="Path_194" data-name="Path 194" d="M157.313,409.41l-3.343-10.074L143.8,405.722Z" transform="translate(-134.523 -396.006)" fill="#00a788"/>
            <path id="Path_195" data-name="Path 195" d="M97.262,511.4l9.337,4.307-6.906,6.936Z" transform="translate(-94.445 -492.509)" fill="#01b8ab"/>
            <path id="Path_196" data-name="Path 196" d="M143.8,395.142l1.492-8.092,8.674,1.706Z" transform="translate(-134.523 -385.426)" fill="#18b79b"/>
            <path id="Path_197" data-name="Path 197" d="M110.986,592.91l.525-.551,7.182,6.826Z" transform="translate(-106.263 -562.22)" fill="#96d4cc"/>
            <path id="Path_198" data-name="Path 198" d="M82.223,522.648,79.792,511.4,76.975,514.2Z" transform="translate(-76.975 -492.509)" fill="#00bac9"/>
            <path id="Path_199" data-name="Path 199" d="M82.223,539.969l-5.249-8.45,4.724,9Z" transform="translate(-76.975 -509.83)" fill="#6cc9ca"/>
            <path id="Path_200" data-name="Path 200" d="M78.964,447.1l.829,8.932-2.818,2.794Z" transform="translate(-76.975 -437.133)" fill="#57c4ca"/>
          </g>
        </g>
      </g>
    </g>
  </g>
</svg>
