<svg xmlns="http://www.w3.org/2000/svg" width="232.11" height="303.718" viewBox="0 0 232.11 303.718">
  <g id="image-not-available" transform="translate(-2986 -579)">
    <rect id="Rectangle_31" data-name="Rectangle 31" width="232.11" height="303.718" transform="translate(2986 579)" fill="#dfdfdf"/>
    <g id="frame-landscape" transform="translate(3056 660.669)">
      <path id="Path_313" data-name="Path 313" d="M91.384,33.331H1.471A1.471,1.471,0,0,0,0,34.8v70.3a1.471,1.471,0,0,0,1.471,1.471H91.384a1.471,1.471,0,0,0,1.471-1.471V34.8A1.471,1.471,0,0,0,91.384,33.331ZM84.028,94.842,63.794,73.889a.6.6,0,0,0-.831-.034L48.93,86.207,30.993,64.121a.59.59,0,0,0-.48-.222.6.6,0,0,0-.47.242L8.827,92.609V42.158h75.2V94.842Z" fill="#aeaeae"/>
      <path id="Path_314" data-name="Path 314" d="M192.748,100.927a7.218,7.218,0,1,0-7.217-7.218A7.219,7.219,0,0,0,192.748,100.927Z" transform="translate(-130.941 -37.518)" fill="#aeaeae"/>
    </g>
  </g>
</svg>
